<?xml version="1.0" encoding="UTF-8" standalone="no"?>
<svg
   width="19"
   height="19"
   viewBox="0 0 19 19"
   fill="none"
   version="1.1"
   id="svg846"
   xmlns="http://www.w3.org/2000/svg"
   xmlns:svg="http://www.w3.org/2000/svg">
  <defs
     id="defs850" />
  <g
     id="Double_Chevron_Down"
     transform="translate(-6.302037,-6.5001958)"
     style="stroke:#ffffff;stroke-opacity:1">
    <path
       d="M 22.285,15.349 16,21.544 9.715,15.348 c -0.394,-0.391 -1.034,-0.391 -1.428,0 -0.394,0.391 -0.394,1.024 0,1.414 l 6.999,6.899 c 0.379,0.375 1.048,0.377 1.429,0 l 6.999,-6.9 c 0.394,-0.39 0.394,-1.024 0,-1.414 -0.395,-0.389 -1.035,-0.389 -1.429,0.002 z"
       fill="#121313"
       id="path1152"
       style="stroke:#ffffff;stroke-opacity:1;fill:#ffffff;fill-opacity:1" />
    <path
       d="m 15.286,16.662 c 0.379,0.375 1.048,0.377 1.429,0 l 6.999,-6.899 c 0.394,-0.391 0.394,-1.024 0,-1.414 -0.394,-0.391 -1.034,-0.391 -1.428,0 L 16,14.544 9.715,8.349 c -0.394,-0.391 -1.034,-0.391 -1.428,0 -0.394,0.391 -0.394,1.024 0,1.414 z"
       fill="#121313"
       id="path1154"
       style="stroke:#ffffff;stroke-opacity:1;fill:#ffffff;fill-opacity:1" />
  </g>
</svg>
